<svg width="36" height="52" viewBox="0 0 36 52" fill="none" xmlns="http://www.w3.org/2000/svg">
<path d="M11.6262 6.02736C11.0643 6.02736 10.6033 5.85448 10.2431 5.50872C9.88298 5.14856 9.7029 4.68034 9.7029 4.10407V2.39688C9.7029 1.83502 9.88298 1.37401 10.2431 1.01384C10.6033 0.653675 11.0643 0.473591 11.6262 0.473591H24.2032C24.7507 0.473591 25.2045 0.653675 25.5646 1.01384C25.9392 1.37401 26.1265 1.83502 26.1265 2.39688V4.10407C26.1265 4.68034 25.9392 5.14856 25.5646 5.50872C25.2045 5.85448 24.7507 6.02736 24.2032 6.02736H11.6262ZM15.0406 5.53033L10.4376 12.0782C10.0054 12.6832 9.68849 13.2379 9.4868 13.7421C9.2851 14.2464 9.14824 14.7866 9.07621 15.3629C9.01858 15.9392 8.98977 16.6379 8.98977 17.4591V44.4284C8.98977 45.7106 9.25629 46.683 9.78934 47.3457C10.3368 48.0084 11.1436 48.3398 12.2097 48.3398H23.5981C24.6498 48.3398 25.4494 48.0084 25.9968 47.3457C26.5587 46.683 26.8396 45.7106 26.8396 44.4284V17.4591C26.8396 16.6379 26.8036 15.9392 26.7316 15.3629C26.6596 14.7866 26.5155 14.2464 26.2994 13.7421C26.0977 13.2379 25.788 12.6832 25.3702 12.0782L20.7456 5.53033L24.2248 4.51466L28.3307 10.2629C29.1087 11.3434 29.6345 12.4455 29.9083 13.5693C30.182 14.693 30.3188 15.9896 30.3188 17.4591V44.4284C30.3188 46.8055 29.7354 48.6279 28.5684 49.8957C27.4015 51.1779 25.7447 51.819 23.5981 51.819H12.2097C10.0487 51.819 8.39189 51.1779 7.23935 49.8957C6.08682 48.6279 5.51055 46.8055 5.51055 44.4284V17.4591C5.51055 15.9896 5.64021 14.693 5.89953 13.5693C6.15885 12.4455 6.67749 11.3434 7.45545 10.2629L11.583 4.51466L15.0406 5.53033ZM7.64995 16.9836H28.1362V19.7065H7.64995V16.9836ZM17.8931 37.3187C16.3804 37.3187 15.163 36.8721 14.241 35.9788C13.3334 35.0856 12.8796 33.9187 12.8796 32.478C12.8796 31.7145 13.002 31.0374 13.2469 30.4467C13.5063 29.8416 13.7224 29.3518 13.8952 28.9772C14.2986 28.0984 14.7957 27.1548 15.3863 26.1463C15.977 25.1234 16.5533 24.187 17.1151 23.337C17.2304 23.1641 17.3528 23.0344 17.4825 22.948C17.6266 22.8616 17.7634 22.8183 17.8931 22.8183C18.1956 22.8183 18.455 22.9912 18.6711 23.337C19.2329 24.187 19.8092 25.1234 20.3999 26.1463C21.0049 27.1548 21.502 28.0984 21.8909 28.9772C22.0926 29.3518 22.3087 29.8416 22.5392 30.4467C22.7842 31.0374 22.9066 31.7145 22.9066 32.478C22.9066 33.9187 22.4456 35.0856 21.5236 35.9788C20.616 36.8721 19.4058 37.3187 17.8931 37.3187ZM7.64995 40.9059H28.1362V43.6288H7.64995V40.9059Z" fill="#54BEF0"/>
</svg>
