<svg width="49" height="42" viewBox="0 0 49 42" fill="none" xmlns="http://www.w3.org/2000/svg">
<path d="M32.1406 39.5781C30.8698 39.5781 29.901 39.25 29.2344 38.5938C28.5781 37.9375 28.1875 36.9219 28.0625 35.5469L26.4688 19.1094C26.3958 18.3594 26.5573 17.7552 26.9531 17.2969C27.349 16.8281 27.901 16.5938 28.6094 16.5938H42.625C43.3438 16.5938 43.8958 16.8281 44.2812 17.2969C44.6771 17.7552 44.8385 18.3594 44.7656 19.1094L43.1875 35.5469C43.0521 36.9219 42.651 37.9375 41.9844 38.5938C41.3281 39.25 40.3646 39.5781 39.0938 39.5781H32.1406ZM32.3438 36H38.9062C39.3438 36 39.5885 35.7604 39.6406 35.2812L41.0781 20.1875H30.1719L31.5938 35.2812C31.6562 35.7604 31.9062 36 32.3438 36ZM34.3125 17.75L34.4844 15.7344C34.5677 14.8906 34.7656 14.1823 35.0781 13.6094C35.401 13.026 35.8906 12.4948 36.5469 12.0156L41.5625 8.39062C42 8.07812 42.4167 7.96875 42.8125 8.0625C43.2188 8.15625 43.5417 8.36979 43.7812 8.70312C44.0208 9.02604 44.125 9.39062 44.0938 9.79688C44.0625 10.1927 43.8385 10.5417 43.4219 10.8438L38.2031 14.5781C37.974 14.7448 37.8073 14.9271 37.7031 15.125C37.6094 15.3229 37.5469 15.5885 37.5156 15.9219L37.3906 17.75H34.3125ZM9.25 36.7969C7.54167 36.7969 6.23438 36.349 5.32812 35.4531C4.43229 34.5677 3.98438 33.2708 3.98438 31.5625V15.1875C3.98438 14.5417 4.03125 14.0365 4.125 13.6719C4.22917 13.3073 4.41146 12.9479 4.67188 12.5938L7.8125 8.40625V6.15625C7.8125 4.78125 8.19271 3.72396 8.95312 2.98438C9.72396 2.24479 10.8125 1.875 12.2188 1.875H24.7188C26.125 1.875 27.2083 2.24479 27.9688 2.98438C28.7396 3.72396 29.125 4.78125 29.125 6.15625V8.40625L32.2812 12.5938C32.4479 12.8229 32.5729 13.0469 32.6562 13.2656C32.7396 13.474 32.7917 13.7396 32.8125 14.0625H29.5156C29.3802 13.9583 29.2396 13.8854 29.0938 13.8438C28.9479 13.7917 28.7865 13.7448 28.6094 13.7031L26.0625 10.3125C25.9062 10.0938 25.8021 9.89583 25.75 9.71875C25.6979 9.53125 25.6719 9.29167 25.6719 9V6.73438C25.6719 5.79688 25.224 5.32812 24.3281 5.32812H12.625C11.7188 5.32812 11.2656 5.79688 11.2656 6.73438V9C11.2656 9.29167 11.2396 9.53125 11.1875 9.71875C11.1458 9.89583 11.0417 10.0938 10.875 10.3125L7.89062 14.2812C7.78646 14.4167 7.71875 14.5417 7.6875 14.6562C7.66667 14.7708 7.65625 14.9375 7.65625 15.1562V31.0781C7.65625 32.4427 8.33333 33.125 9.6875 33.125H25.2812L25.5312 35.7969C25.5521 35.9635 25.5729 36.1302 25.5938 36.2969C25.6146 36.474 25.6458 36.6406 25.6875 36.7969H9.25ZM14.4844 9.70312C14.1719 9.70312 13.9062 9.59375 13.6875 9.375C13.4688 9.14583 13.3594 8.875 13.3594 8.5625C13.3594 8.23958 13.4688 7.96875 13.6875 7.75C13.9167 7.52083 14.1823 7.40625 14.4844 7.40625H22.4688C22.7708 7.40625 23.0312 7.52083 23.25 7.75C23.4792 7.96875 23.5938 8.23958 23.5938 8.5625C23.5938 8.875 23.4844 9.14583 23.2656 9.375C23.0469 9.59375 22.7812 9.70312 22.4688 9.70312H14.4844Z" fill="#70D7FF"/>
</svg>
