<svg width="42" height="39" viewBox="0 0 42 39" fill="none" xmlns="http://www.w3.org/2000/svg">
<path d="M29.1406 38.5781C27.8698 38.5781 26.901 38.25 26.2344 37.5938C25.5781 36.9375 25.1875 35.9219 25.0625 34.5469L23.4688 18.1094C23.3958 17.3594 23.5573 16.7552 23.9531 16.2969C24.349 15.8281 24.901 15.5938 25.6094 15.5938H39.625C40.3438 15.5938 40.8958 15.8281 41.2812 16.2969C41.6771 16.7552 41.8385 17.3594 41.7656 18.1094L40.1875 34.5469C40.0521 35.9219 39.651 36.9375 38.9844 37.5938C38.3281 38.25 37.3646 38.5781 36.0938 38.5781H29.1406ZM29.3438 35H35.9062C36.3438 35 36.5885 34.7604 36.6406 34.2812L38.0781 19.1875H27.1719L28.5938 34.2812C28.6562 34.7604 28.9062 35 29.3438 35ZM31.3125 16.75L31.4844 14.7344C31.5677 13.8906 31.7656 13.1823 32.0781 12.6094C32.401 12.026 32.8906 11.4948 33.5469 11.0156L38.5625 7.39062C39 7.07812 39.4167 6.96875 39.8125 7.0625C40.2188 7.15625 40.5417 7.36979 40.7812 7.70312C41.0208 8.02604 41.125 8.39062 41.0938 8.79688C41.0625 9.19271 40.8385 9.54167 40.4219 9.84375L35.2031 13.5781C34.974 13.7448 34.8073 13.9271 34.7031 14.125C34.6094 14.3229 34.5469 14.5885 34.5156 14.9219L34.3906 16.75H31.3125ZM6.25 35.7969C4.54167 35.7969 3.23438 35.349 2.32812 34.4531C1.43229 33.5677 0.984375 32.2708 0.984375 30.5625V14.1875C0.984375 13.5417 1.03125 13.0365 1.125 12.6719C1.22917 12.3073 1.41146 11.9479 1.67188 11.5938L4.8125 7.40625V5.15625C4.8125 3.78125 5.19271 2.72396 5.95312 1.98438C6.72396 1.24479 7.8125 0.875 9.21875 0.875H21.7188C23.125 0.875 24.2083 1.24479 24.9688 1.98438C25.7396 2.72396 26.125 3.78125 26.125 5.15625V7.40625L29.2812 11.5938C29.4479 11.8229 29.5729 12.0469 29.6562 12.2656C29.7396 12.474 29.7917 12.7396 29.8125 13.0625H26.5156C26.3802 12.9583 26.2396 12.8854 26.0938 12.8438C25.9479 12.7917 25.7865 12.7448 25.6094 12.7031L23.0625 9.3125C22.9062 9.09375 22.8021 8.89583 22.75 8.71875C22.6979 8.53125 22.6719 8.29167 22.6719 8V5.73438C22.6719 4.79688 22.224 4.32812 21.3281 4.32812H9.625C8.71875 4.32812 8.26562 4.79688 8.26562 5.73438V8C8.26562 8.29167 8.23958 8.53125 8.1875 8.71875C8.14583 8.89583 8.04167 9.09375 7.875 9.3125L4.89062 13.2812C4.78646 13.4167 4.71875 13.5417 4.6875 13.6562C4.66667 13.7708 4.65625 13.9375 4.65625 14.1562V30.0781C4.65625 31.4427 5.33333 32.125 6.6875 32.125H22.2812L22.5312 34.7969C22.5521 34.9635 22.5729 35.1302 22.5938 35.2969C22.6146 35.474 22.6458 35.6406 22.6875 35.7969H6.25ZM11.4844 8.70312C11.1719 8.70312 10.9062 8.59375 10.6875 8.375C10.4688 8.14583 10.3594 7.875 10.3594 7.5625C10.3594 7.23958 10.4688 6.96875 10.6875 6.75C10.9167 6.52083 11.1823 6.40625 11.4844 6.40625H19.4688C19.7708 6.40625 20.0312 6.52083 20.25 6.75C20.4792 6.96875 20.5938 7.23958 20.5938 7.5625C20.5938 7.875 20.4844 8.14583 20.2656 8.375C20.0469 8.59375 19.7812 8.70312 19.4688 8.70312H11.4844Z" fill="#54BEF0"/>
</svg>
